<svg id="Layer_1" data-name="Layer 1" xmlns="http://www.w3.org/2000/svg" viewBox="0 0 673.66 565.51"><defs><style>.cls-1{fill:#ccdadb;}.cls-2{fill:#f9b216;stroke-width:4px;}.cls-2,.cls-3,.cls-6{stroke:#232020;}.cls-13,.cls-2,.cls-3,.cls-6{stroke-miterlimit:10;}.cls-3{fill:#fff000;stroke-width:7px;}.cls-4{fill:#fcea00;}.cls-5{fill:#f16924;}.cls-13,.cls-6{fill:none;stroke-linecap:round;stroke-width:3px;}.cls-7{fill:#f89e28;}.cls-8{fill:#fdd81c;}.cls-16,.cls-9{fill:#fff;}.cls-10{fill:#e7e7e6;}.cls-11{fill:#c33e28;}.cls-12{fill:#faaf28;}.cls-13{stroke:#802718;}.cls-14{font-size:95.78px;}.cls-14,.cls-16{font-family:WorkSans-ExtraBold, Work Sans;font-weight:800;}.cls-15{fill:#232020;}.cls-16{font-size:46px;}.cls-17{letter-spacing:-0.01em;}</style></defs><path class="cls-1" d="M971.45,768.67,865.6,644.09l15.06-50.48a10.92,10.92,0,0,0-1.67-9.72,11.43,11.43,0,0,0-4-3.37c-3.42-2.66-10.35-7.42-16.25-7.42a8.76,8.76,0,0,0-4.94,1.4l-32.9,21.41-133-209.66a41.15,41.15,0,0,0-69.5,0l-130.63,206-24.39-86.65-.15-.51-.33-.42c-.43-.55-4.55-5.36-16.73-5.36-11.75,0-15,5.11-15.32,5.69l-.16.27L383.7,667l-52.05,15.74a11.31,11.31,0,0,0-8.1,10.33,11.92,11.92,0,0,0,.08,2c-.46,5.76-.59,18.6,6.87,21.74L412,752.3a87.91,87.91,0,0,0,34.27,6.92h0a87.87,87.87,0,0,0,36.62-7.94l24-10.53H734l-2.81,16.3c-1.13,7.23,8.27,13.59,13.67,16.61a11.36,11.36,0,0,0,7.5,2.92,10.88,10.88,0,0,0,6.83-2.42l37.39-29.67,157,50.16.5.15.51,0c.67,0,6.76-.82,13.26-10.66C974.15,774.6,971.75,769.25,971.45,768.67Z" transform="translate(-303.67 -229.29)"/><path class="cls-2" d="M598,364.78,413.26,656.08c-15.86,25,2.11,57.67,31.71,57.67H814.49c29.61,0,47.57-32.66,31.71-57.67L661.44,364.78A37.55,37.55,0,0,0,598,364.78Z" transform="translate(-303.67 -229.29)"/><path class="cls-3" d="M445,681.22a5,5,0,0,1-4.23-7.71l184.75-291.3a5,5,0,0,1,8.48,0l184.76,291.3a5,5,0,0,1-4.24,7.71Z" transform="translate(-303.67 -229.29)"/><path class="cls-4" d="M518.57,523.86a6.5,6.5,0,0,1-5.47-10l93.26-145.32a6.51,6.51,0,1,1,10.95,7L524.05,520.87A6.51,6.51,0,0,1,518.57,523.86Z" transform="translate(-303.67 -229.29)"/><path class="cls-5" d="M310.57,693.36l81.5,35.45a85.69,85.69,0,0,0,68.76-1l74.55-32.68a8.72,8.72,0,0,0-.9-16.21L424.81,643a1.65,1.65,0,0,0-1,0L311.43,677A8.71,8.71,0,0,0,310.57,693.36Z" transform="translate(-303.67 -229.29)"/><path class="cls-6" d="M310.57,693.36l81.5,35.45a85.69,85.69,0,0,0,68.76-1l74.55-32.68c7.22-3.29,4.61-22,4.61-22L424.81,643a1.65,1.65,0,0,0-1,0L305.58,671.83S303.05,690.2,310.57,693.36Z" transform="translate(-303.67 -229.29)"/><path class="cls-7" d="M310.57,680.74l81.5,35.45a85.69,85.69,0,0,0,68.76-1l74.55-32.68a8.72,8.72,0,0,0-.9-16.21L424.81,630.38a1.57,1.57,0,0,0-1,0l-112.42,34A8.71,8.71,0,0,0,310.57,680.74Z" transform="translate(-303.67 -229.29)"/><path class="cls-8" d="M464.74,697.55c-11.15-5-22-10.7-32.83-16.3-18.16-9.36-36.37-18.68-54.65-27.8l-58.62,17.72a2.19,2.19,0,0,0-.24,4.1l73.26,31.87a75.53,75.53,0,0,0,29.43,5.94h0a75.56,75.56,0,0,0,31.59-6.89l15.81-6.93C467.24,698.69,466,698.11,464.74,697.55Z" transform="translate(-303.67 -229.29)"/><path class="cls-6" d="M310.57,680.74l81.5,35.45a85.69,85.69,0,0,0,68.76-1l74.55-32.68a8.72,8.72,0,0,0-.9-16.21L424.81,630.38a1.57,1.57,0,0,0-1,0l-112.42,34A8.71,8.71,0,0,0,310.57,680.74Z" transform="translate(-303.67 -229.29)"/><path class="cls-9" d="M357.48,673.7s6.07,28.52,65.45,29S494,677.91,494,677.91L439.76,485.29S436.37,481,425.15,481c-10.52,0-13,4.32-13,4.32Z" transform="translate(-303.67 -229.29)"/><path class="cls-10" d="M494,677.91,439.76,485.29S436.37,481,425.15,481a31,31,0,0,0-4.49.31l50.82,213.79C489.42,687.78,494,677.91,494,677.91Z" transform="translate(-303.67 -229.29)"/><path class="cls-6" d="M368.23,644.72s48.62,29,115.48,0" transform="translate(-303.67 -229.29)"/><path class="cls-6" d="M378,603.87c16.15,6.32,51.13,15.37,95.32-.38" transform="translate(-303.67 -229.29)"/><path class="cls-6" d="M389.39,562.3c16.51,4.54,41.7,7.74,72.05-.46" transform="translate(-303.67 -229.29)"/><path class="cls-6" d="M402.14,519.75a136.62,136.62,0,0,0,47.53-.58" transform="translate(-303.67 -229.29)"/><path class="cls-6" d="M357.48,673.7s6.07,28.52,65.45,29S494,677.91,494,677.91L439.76,485.29S436.37,481,425.15,481c-10.52,0-13,4.32-13,4.32Z" transform="translate(-303.67 -229.29)"/><path class="cls-5" d="M482.71,648.18c-22,9.2-42,12.33-58.87,12.33-30.38,0-50.91-10-55.91-12.74L360.4,673.7c1.34,3.86,11.25,25.78,62.55,26.19h1.61c49.1,0,63.74-18.24,66.41-22.36Z" transform="translate(-303.67 -229.29)"/><path class="cls-5" d="M445.76,517l-8.5-30.21c-.95-.76-4.37-3-12.11-3-7.13,0-9.78,2.16-10.43,2.82l-9,30.85A133.92,133.92,0,0,0,445.76,517Z" transform="translate(-303.67 -229.29)"/><path class="cls-5" d="M469.64,601.76l-10.28-36.5a145.35,145.35,0,0,1-35.29,4.43,134.69,134.69,0,0,1-32.35-3.89l-10.53,36.29C398,608.23,429.75,615.18,469.64,601.76Z" transform="translate(-303.67 -229.29)"/><path class="cls-11" d="M491,676.13l-8.26-29.36A165.8,165.8,0,0,1,462,653.89l8.78,37C484.09,685.33,489.46,678.46,491,676.13Z" transform="translate(-303.67 -229.29)"/><path class="cls-11" d="M437.26,486.76c-.95-.76-4.37-3-12.11-3a28.42,28.42,0,0,0-3.84.25l8.22,34.57A137.86,137.86,0,0,0,445.76,517Z" transform="translate(-303.67 -229.29)"/><path class="cls-11" d="M459.36,565.26a150.24,150.24,0,0,1-17.95,3.34l9.09,38.24a149.45,149.45,0,0,0,19.14-5.08Z" transform="translate(-303.67 -229.29)"/><path class="cls-12" d="M414.74,520.53l3.51-32-9,31.51C411.06,520.22,412.9,520.35,414.74,520.53Z" transform="translate(-303.67 -229.29)"/><path class="cls-12" d="M396.52,564.34l-12.38,43.17c6.36,3,13.59,3.08,20.58,4l5-45.33C405.28,565.85,400.92,565,396.52,564.34Z" transform="translate(-303.67 -229.29)"/><path class="cls-12" d="M373,646.47l-7.55,26.3c10.76,17.77,30.51,18.58,30.51,18.58l4-36.52C390.89,652.67,380.54,652.24,373,646.47Z" transform="translate(-303.67 -229.29)"/><path class="cls-6" d="M357.48,673.7s6.07,28.52,65.45,29S494,677.91,494,677.91L439.76,485.29S436.37,481,425.15,481c-10.52,0-13,4.32-13,4.32Z" transform="translate(-303.67 -229.29)"/><path class="cls-6" d="M368.23,644.72s48.62,29,115.48,0" transform="translate(-303.67 -229.29)"/><path class="cls-6" d="M378,603.87c16.15,6.32,51.13,15.37,95.32-.38" transform="translate(-303.67 -229.29)"/><path class="cls-6" d="M389.39,562.3c16.51,4.54,41.7,7.74,72.05-.46" transform="translate(-303.67 -229.29)"/><path class="cls-6" d="M402.14,519.75a136.62,136.62,0,0,0,47.53-.58" transform="translate(-303.67 -229.29)"/><line class="cls-13" x1="173.49" y1="428.17" x2="178.63" y2="447.69"/><line class="cls-13" x1="150.82" y1="343.43" x2="157.13" y2="367.27"/><line class="cls-13" x1="129.66" y1="263.6" x2="133.75" y2="279.73"/><path class="cls-5" d="M852,548l-74.48,48.47a85.71,85.71,0,0,0-37,57.94l-13.81,80.22a8.72,8.72,0,0,0,14,8.18l90.39-71.73a1.65,1.65,0,0,0,.54-.79L865.2,557.75A8.72,8.72,0,0,0,852,548Z" transform="translate(-303.67 -229.29)"/><path class="cls-6" d="M852,548l-74.48,48.47a85.71,85.71,0,0,0-37,57.94l-13.81,80.22c-1.23,7.84,15.82,16,15.82,16l88.6-79.52a1.65,1.65,0,0,0,.54-.79l41.1-114.59S858.79,543.47,852,548Z" transform="translate(-303.67 -229.29)"/><path class="cls-7" d="M862.54,555l-74.49,48.47a85.72,85.72,0,0,0-37,57.94l-13.8,80.21a8.71,8.71,0,0,0,14,8.19L841.62,678a1.55,1.55,0,0,0,.53-.79L875.73,564.7A8.71,8.71,0,0,0,862.54,555Z" transform="translate(-303.67 -229.29)"/><path class="cls-8" d="M763.56,674.36c10.33-6.55,21-12.44,31.7-18.42q26.72-15,53.31-30.29L866.08,567a2.19,2.19,0,0,0-3.29-2.46l-67,43.58a75.5,75.5,0,0,0-21.16,21.28h0A75.55,75.55,0,0,0,763,659.53l-2.93,17Z" transform="translate(-303.67 -229.29)"/><path class="cls-6" d="M862.54,555l-74.49,48.47a85.72,85.72,0,0,0-37,57.94l-13.8,80.21a8.71,8.71,0,0,0,14,8.19L841.62,678a1.55,1.55,0,0,0,.53-.79L875.73,564.7A8.71,8.71,0,0,0,862.54,555Z" transform="translate(-303.67 -229.29)"/><path class="cls-9" d="M842.57,598s-27.15-10.64-60.26,38.65-18.48,73-18.48,73l190.62,60.88s5.48-.45,11.66-9.81c5.8-8.78,3.54-13.21,3.54-13.21Z" transform="translate(-303.67 -229.29)"/><path class="cls-10" d="M763.83,709.59l190.62,60.88s5.48-.45,11.66-9.81a31.57,31.57,0,0,0,2.21-3.92l-206.4-75.4C758.11,700.33,763.83,709.59,763.83,709.59Z" transform="translate(-303.67 -229.29)"/><path class="cls-6" d="M860.83,622.93s-51,24.6-63.63,96.36" transform="translate(-303.67 -229.29)"/><path class="cls-6" d="M889.56,653.55c-14.17,10-41,34.2-52.21,79.76" transform="translate(-303.67 -229.29)"/><path class="cls-6" d="M917.94,686c-12.88,11.28-29.43,30.53-39.31,60.37" transform="translate(-303.67 -229.29)"/><path class="cls-6" d="M946.43,720.09a136.72,136.72,0,0,0-25.71,40" transform="translate(-303.67 -229.29)"/><path class="cls-6" d="M842.57,598s-27.15-10.64-60.26,38.65-18.48,73-18.48,73l190.62,60.88s5.48-.45,11.66-9.81c5.8-8.78,3.54-13.21,3.54-13.21Z" transform="translate(-303.67 -229.29)"/><path class="cls-5" d="M794.86,716.55c4.45-23.43,12.84-41.81,22.15-55.92,16.74-25.35,36.41-37,41.44-39.63L841,600.43c-4-1-27.71-4.83-56.32,37.77l-.89,1.33c-27.06,41-19.9,63.24-17.94,67.74Z" transform="translate(-303.67 -229.29)"/><path class="cls-5" d="M924.71,758l29.89,9.55c1.17-.37,4.9-2,9.17-8.46,3.93-6,3.59-9.35,3.4-10.25l-20.81-24.47A133.83,133.83,0,0,0,924.71,758Z" transform="translate(-303.67 -229.29)"/><path class="cls-5" d="M840.79,731.22l36.13,11.54a145.81,145.81,0,0,1,15.74-31.89A134.8,134.8,0,0,1,913.74,686l-24.48-28.79C874.91,667.83,851.58,690.54,840.79,731.22Z" transform="translate(-303.67 -229.29)"/><path class="cls-11" d="M767,708.05l29,9.28a166.87,166.87,0,0,1,5.46-21.19l-35.67-13C763.1,697.24,765.87,705.5,767,708.05Z" transform="translate(-303.67 -229.29)"/><path class="cls-11" d="M954.6,767.57c1.17-.37,4.9-2,9.17-8.46a27,27,0,0,0,1.91-3.34L932.3,743.58A138.35,138.35,0,0,0,924.71,758Z" transform="translate(-303.67 -229.29)"/><path class="cls-11" d="M876.92,742.76a150.22,150.22,0,0,1,7.1-16.82L847.1,712.46a151,151,0,0,0-6.31,18.76Z" transform="translate(-303.67 -229.29)"/><path class="cls-12" d="M938.84,730.17l24.73,20.55-21.31-24.9C941.12,727.27,940,728.74,938.84,730.17Z" transform="translate(-303.67 -229.29)"/><path class="cls-12" d="M912.32,690.83l-29.21-34.12c-6,3.63-10.06,9.64-14.66,15l35.08,29.14C906.22,697.3,909.33,694.13,912.32,690.83Z" transform="translate(-303.67 -229.29)"/><path class="cls-12" d="M856.76,625.92,839,605.13c-20.75-.82-32.32,15.22-32.32,15.22l28.26,23.48C841.7,637.45,847.76,629.06,856.76,625.92Z" transform="translate(-303.67 -229.29)"/><path class="cls-6" d="M842.57,598s-27.15-10.64-60.26,38.65-18.48,73-18.48,73l190.62,60.88s5.48-.45,11.66-9.81c5.8-8.78,3.54-13.21,3.54-13.21Z" transform="translate(-303.67 -229.29)"/><path class="cls-6" d="M860.83,622.93s-51,24.6-63.63,96.36" transform="translate(-303.67 -229.29)"/><path class="cls-6" d="M889.56,653.55c-14.17,10-41,34.2-52.21,79.76" transform="translate(-303.67 -229.29)"/><path class="cls-6" d="M917.94,686c-12.88,11.28-29.43,30.53-39.31,60.37" transform="translate(-303.67 -229.29)"/><path class="cls-6" d="M946.43,720.09a136.72,136.72,0,0,0-25.71,40" transform="translate(-303.67 -229.29)"/><line class="cls-13" x1="486.5" y1="477.52" x2="467.38" y2="471.06"/><line class="cls-13" x1="569.71" y1="505.29" x2="546.33" y2="497.42"/><line class="cls-13" x1="647.98" y1="531.63" x2="632.27" y2="526.15"/><text class="cls-14" transform="translate(226.38 357.17)">404</text><rect class="cls-15" x="245.54" y="371.84" width="161.04" height="48.55"/><text x="-303.67" y="-229.29"/><path class="cls-6" d="M808.71,267.9h-.41a26.51,26.51,0,1,0-51.94,10.54,15.53,15.53,0,0,0-3.94-.51,15.18,15.18,0,0,0-2,30.23v.14h58.27a20.21,20.21,0,1,0,0-40.41Z" transform="translate(-303.67 -229.29)"/><path class="cls-6" d="M792.61,275.9a20.21,20.21,0,0,1,36.31,12.21" transform="translate(-303.67 -229.29)"/><path class="cls-6" d="M766,269.19c1.38-4.65,4.62-10.93,12.19-13.68" transform="translate(-303.67 -229.29)"/><path class="cls-6" d="M416.76,311.61a39.83,39.83,0,1,0-78-15.83l-.63,0a30.35,30.35,0,1,0,0,60.7H394" transform="translate(-303.67 -229.29)"/><path class="cls-6" d="M362.28,307.78a30.35,30.35,0,0,0-54.54,18.33" transform="translate(-303.67 -229.29)"/><path class="cls-6" d="M410.31,326.61a19.47,19.47,0,0,1,38.94,0h55.83" transform="translate(-303.67 -229.29)"/><line class="cls-6" x1="106.44" y1="127.01" x2="137.8" y2="127.01"/><line class="cls-6" x1="214.36" y1="96.82" x2="226.38" y2="96.82"/><path class="cls-6" d="M821,471h69.39a13.41,13.41,0,1,0,0-26.81h-.27a17.59,17.59,0,0,0-34.91,3.1,17.33,17.33,0,0,0,.44,3.9" transform="translate(-303.67 -229.29)"/><path class="cls-6" d="M879.66,449.49a13.41,13.41,0,0,1,24.09,8.1" transform="translate(-303.67 -229.29)"/><path class="cls-6" d="M949.3,469.62a26.53,26.53,0,1,0,0-53.06h-.55a34.82,34.82,0,0,0-69.09,6.13,34.38,34.38,0,0,0,.87,7.71" transform="translate(-303.67 -229.29)"/><path class="cls-6" d="M928.15,427.07a26.53,26.53,0,0,1,47.68,16" transform="translate(-303.67 -229.29)"/><path class="cls-6" d="M890,423.68s.62-19.24,17.35-25.31" transform="translate(-303.67 -229.29)"/><line class="cls-6" x1="505.75" y1="241.71" x2="496" y2="241.71"/><line class="cls-6" x1="544.88" y1="164.7" x2="544.88" y2="176.93"/><line class="cls-6" x1="550.99" y1="170.82" x2="538.76" y2="170.82"/><line class="cls-6" x1="155.08" y1="30.74" x2="155.08" y2="42.97"/><line class="cls-6" x1="161.2" y1="36.85" x2="148.96" y2="36.85"/><line class="cls-6" x1="187.28" y1="166.87" x2="187.28" y2="179.1"/><line class="cls-6" x1="193.39" y1="172.98" x2="181.16" y2="172.98"/><line class="cls-6" x1="384.08" y1="1.5" x2="384.08" y2="13.73"/><line class="cls-6" x1="390.19" y1="7.62" x2="377.96" y2="7.62"/><line class="cls-6" x1="113.48" y1="204.9" x2="79.28" y2="204.9"/><line class="cls-6" x1="62.48" y1="204.9" x2="55.88" y2="204.9"/><text class="cls-16" transform="translate(248 413.63)">ER<tspan class="cls-17" x="61" y="0">R</tspan><tspan x="92.78" y="0">OR</tspan></text></svg>